<svg width="30" height="32" viewBox="0 0 30 32" fill="none" xmlns="http://www.w3.org/2000/svg">
<path d="M28.0313 11.8647C27.914 11.481 27.6878 11.1431 27.3825 10.8953C27.0772 10.6475 26.707 10.5013 26.3204 10.4761L19.3594 9.97661L16.7813 3.21591C16.6405 2.84365 16.3955 2.52388 16.0779 2.29801C15.7603 2.07215 15.3849 1.95057 15.0001 1.94904C14.6153 1.95057 14.2398 2.07215 13.9222 2.29801C13.6046 2.52388 13.3596 2.84365 13.2188 3.21591L10.5938 10.0132L3.67976 10.4761C3.29363 10.503 2.92416 10.6497 2.61914 10.8973C2.31411 11.1449 2.08757 11.4819 1.96882 11.8647C1.84688 12.2535 1.83975 12.6713 1.94837 13.0643C2.05698 13.4572 2.27635 13.8074 2.5782 14.0696L7.89851 18.7473L6.31648 25.2156C6.20702 25.6532 6.22672 26.1149 6.37301 26.5407C6.5193 26.9665 6.78542 27.3367 7.13679 27.6032C7.47784 27.8576 7.88417 28.0005 8.30379 28.0135C8.7234 28.0265 9.13721 27.9091 9.49226 27.6763L14.9883 24.0584H15.0118L20.9298 27.9443C21.2333 28.1493 21.5872 28.2593 21.9493 28.261C22.2449 28.2586 22.536 28.1857 22.8003 28.0481C23.0646 27.9104 23.295 27.7116 23.4738 27.4669C23.6526 27.2222 23.7751 26.9381 23.8318 26.6366C23.8885 26.335 23.8779 26.0239 23.8008 25.7272L22.1251 18.6498L27.4219 14.0696C27.7238 13.8074 27.9432 13.4572 28.0518 13.0643C28.1604 12.6713 28.1533 12.2535 28.0313 11.8647Z" fill="#FFC045"/>
</svg>
